<svg width="50" height="50" viewBox="0 0 50 50" fill="none" xmlns="http://www.w3.org/2000/svg">
<path d="M46 7V43C46 43.7956 45.6839 44.5587 45.1213 45.1213C44.5587 45.6839 43.7956 46 43 46H41C40.2043 46 39.4413 45.6839 38.8787 45.1213C38.3161 44.5587 38 43.7956 38 43V7C38 6.20435 38.3161 5.44129 38.8787 4.87868C39.4413 4.31607 40.2043 4 41 4H43C43.7956 4 44.5587 4.31607 45.1213 4.87868C45.6839 5.44129 46 6.20435 46 7ZM32.3 21.76L10.48 5C9.89696 4.5607 9.20483 4.28934 8.47859 4.2153C7.75234 4.14127 7.01969 4.26739 6.36 4.58C5.67379 4.91141 5.09652 5.43195 4.69614 6.08035C4.29576 6.72875 4.08894 7.47803 4.1 8.24V41.76C4.09533 42.5029 4.29762 43.2323 4.6842 43.8667C5.07078 44.5011 5.62638 45.0152 6.28874 45.3516C6.9511 45.688 7.69404 45.8333 8.43432 45.7711C9.17459 45.709 9.88294 45.442 10.48 45L32.3 28.26C32.7979 27.8771 33.2012 27.3849 33.4787 26.8214C33.7562 26.2579 33.9005 25.6381 33.9005 25.01C33.9005 24.3819 33.7562 23.7621 33.4787 23.1986C33.2012 22.6351 32.7979 22.1429 32.3 21.76Z" fill="white"/>
</svg>
