<svg width="56" height="65" viewBox="0 0 56 65" fill="none" xmlns="http://www.w3.org/2000/svg">
<path d="M51.4672 24.0738L11.6074 1.04467C10.468 0.370556 9.17045 0.0101221 7.84661 0C5.76556 0 3.76974 0.826694 2.29822 2.29822C0.826694 3.76974 0 5.76556 0 7.84661V57.2709C0.000264665 58.6519 0.370465 60.0077 1.07211 61.1971C1.77376 62.3866 2.78123 63.3664 3.98978 64.0347C5.19832 64.7029 6.56382 65.0352 7.94429 64.997C9.32476 64.9589 10.6698 64.5516 11.8396 63.8175L51.7458 38.6062C52.9866 37.8297 54.0051 36.7449 54.702 35.4577C55.399 34.1704 55.7505 32.7246 55.7225 31.2611C55.6944 29.7976 55.2877 28.3663 54.542 27.1067C53.7962 25.8471 52.7369 24.8022 51.4672 24.0738Z" fill="white"/>
</svg>
