<svg width="50" height="50" viewBox="0 0 50 50" fill="none" xmlns="http://www.w3.org/2000/svg">
<path d="M4 43L4 7C4 6.20436 4.31608 5.4413 4.87869 4.87869C5.4413 4.31608 6.20436 4.00001 7 4.00001H9C9.79565 4.00001 10.5587 4.31608 11.1213 4.87869C11.6839 5.4413 12 6.20436 12 7L12 43C12 43.7956 11.6839 44.5587 11.1213 45.1213C10.5587 45.6839 9.79565 46 9 46H7C6.20436 46 5.4413 45.6839 4.87869 45.1213C4.31608 44.5587 4 43.7956 4 43ZM17.7 28.24L39.52 45C40.103 45.4393 40.7952 45.7107 41.5214 45.7847C42.2477 45.8587 42.9803 45.7326 43.64 45.42C44.3262 45.0886 44.9035 44.568 45.3039 43.9197C45.7042 43.2713 45.9111 42.522 45.9 41.76V8.24001C45.9047 7.49715 45.7024 6.76766 45.3158 6.1333C44.9292 5.49894 44.3736 4.98476 43.7113 4.64839C43.0489 4.31202 42.306 4.16675 41.5657 4.22885C40.8254 4.29096 40.1171 4.55798 39.52 5L17.7 21.74C17.2021 22.1229 16.7988 22.6151 16.5213 23.1786C16.2438 23.7421 16.0995 24.3619 16.0995 24.99C16.0995 25.6181 16.2438 26.2379 16.5213 26.8014C16.7988 27.3649 17.2021 27.8571 17.7 28.24Z" fill="white"/>
</svg>
